<?xml version="1.0"?>
<svg id="BoltLogo" xmlns="http://www.w3.org/2000/svg" version="1.1" viewBox="66 58 378 130">
  <g id="wordmark">
    <path fill="#fff5ea" d="M130.07,110.98c5.09-3.97,8.06-9.8,8.06-17.25,0-15.39-11.41-24.69-28.66-24.69h-34.24v86.85h36.6c17.62,0,29.16-10.05,29.16-25.44,0-8.81-4.22-15.51-10.92-19.48h0ZM97.44,88.9h11.41c3.97,0,7.07,2.61,7.07,6.83,0,4.47-3.23,6.82-7.07,6.82h-11.41v-13.65ZM111.21,136.04h-13.77v-14.64h13.77c4.47,0,7.57,2.85,7.57,7.32,0,4.22-3.1,7.32-7.57,7.32h0Z"></path>
    <path fill="#fff5ea" d="M225.67,67.99l-5.11,21.15c11.45,1.6,19.8,10.73,19.8,23.32,0,11.83-7.37,20.6-17.76,22.95-1.81.41-3.72.62-5.69.62-.99,0-1.96-.06-2.91-.16-11.82-1.31-20.53-10.55-20.53-23.41,0-11.72,7.24-20.45,17.48-22.89l10.43-22.19c-1.47-.14-2.96-.21-4.46-.21-25.31,0-45.53,19.73-45.53,45.29,0,22.61,15.82,40.66,37,44.52,1.28.23,2.59.41,3.91.54,1.52.15,3.07.22,4.63.22,25.31,0,45.54-19.73,45.54-45.29,0-22.53-15.72-40.53-36.78-44.48l-.02.02Z"></path>
    <polygon fill="#fff5ea" points="319.76 69.04 297.55 69.04 297.55 155.9 349.66 155.9 349.66 134.43 319.76 134.43 319.76 69.04"></polygon>
    <polygon fill="#fff5ea" points="368.26 69.04 368.26 90.51 389.73 90.51 389.73 155.9 411.94 155.9 411.94 90.51 433.4 90.51 433.4 69.04 368.26 69.04"></polygon>
    <path fill="#f0584a" d="M208.37,156.99c1.28.23,2.59.41,3.91.54l-9.44,20.24,5.53-20.78Z"></path>
    <path fill="#f0584a" d="M236.5,105.66l-13.89,29.76c-1.81.41-3.72.62-5.69.62-.99,0-1.96-.06-2.91-.16l4.11-15.42-21.22-.97,14.06-29.91,10.43-22.19,9.12-19.39-4.82,19.99-5.11,21.15-3.75,15.56,19.69.95h-.02Z"></path>
  </g>
</svg>